<mxfile host="app.diagrams.net" modified="2020-10-10T20:42:42.494Z" agent="5.0 (Windows NT 10.0; Win64; x64) AppleWebKit/537.36 (KHTML, like Gecko) Chrome/86.0.4240.75 Safari/537.36" etag="FZcP0XuenzshZwHQmAHr" version="13.7.9" type="github">
  <diagram id="h_pTSaXJSFHS9XMoRHas" name="Page-1">
    <mxGraphModel dx="1146" dy="548" grid="1" gridSize="10" guides="1" tooltips="1" connect="1" arrows="1" fold="1" page="1" pageScale="1" pageWidth="827" pageHeight="1169" math="0" shadow="0">
      <root>
        <mxCell id="0" />
        <mxCell id="1" parent="0" />
        <mxCell id="xzjI1KY8UYYocgD0sZGR-1" value="Staff" style="shape=table;startSize=30;container=1;collapsible=1;childLayout=tableLayout;fixedRows=1;rowLines=0;fontStyle=1;align=center;resizeLast=1;" vertex="1" parent="1">
          <mxGeometry x="40" y="80" width="180" height="160" as="geometry" />
        </mxCell>
        <mxCell id="xzjI1KY8UYYocgD0sZGR-2" value="" style="shape=partialRectangle;collapsible=0;dropTarget=0;pointerEvents=0;fillColor=none;top=0;left=0;bottom=1;right=0;points=[[0,0.5],[1,0.5]];portConstraint=eastwest;" vertex="1" parent="xzjI1KY8UYYocgD0sZGR-1">
          <mxGeometry y="30" width="180" height="30" as="geometry" />
        </mxCell>
        <mxCell id="xzjI1KY8UYYocgD0sZGR-3" value="PK" style="shape=partialRectangle;connectable=0;fillColor=none;top=0;left=0;bottom=0;right=0;fontStyle=1;overflow=hidden;" vertex="1" parent="xzjI1KY8UYYocgD0sZGR-2">
          <mxGeometry width="30" height="30" as="geometry" />
        </mxCell>
        <mxCell id="xzjI1KY8UYYocgD0sZGR-4" value="StaffNo" style="shape=partialRectangle;connectable=0;fillColor=none;top=0;left=0;bottom=0;right=0;align=left;spacingLeft=6;fontStyle=5;overflow=hidden;" vertex="1" parent="xzjI1KY8UYYocgD0sZGR-2">
          <mxGeometry x="30" width="150" height="30" as="geometry" />
        </mxCell>
        <mxCell id="xzjI1KY8UYYocgD0sZGR-5" value="" style="shape=partialRectangle;collapsible=0;dropTarget=0;pointerEvents=0;fillColor=none;top=0;left=0;bottom=0;right=0;points=[[0,0.5],[1,0.5]];portConstraint=eastwest;" vertex="1" parent="xzjI1KY8UYYocgD0sZGR-1">
          <mxGeometry y="60" width="180" height="30" as="geometry" />
        </mxCell>
        <mxCell id="xzjI1KY8UYYocgD0sZGR-6" value="" style="shape=partialRectangle;connectable=0;fillColor=none;top=0;left=0;bottom=0;right=0;editable=1;overflow=hidden;" vertex="1" parent="xzjI1KY8UYYocgD0sZGR-5">
          <mxGeometry width="30" height="30" as="geometry" />
        </mxCell>
        <mxCell id="xzjI1KY8UYYocgD0sZGR-7" value="StaffFirstName" style="shape=partialRectangle;connectable=0;fillColor=none;top=0;left=0;bottom=0;right=0;align=left;spacingLeft=6;overflow=hidden;" vertex="1" parent="xzjI1KY8UYYocgD0sZGR-5">
          <mxGeometry x="30" width="150" height="30" as="geometry" />
        </mxCell>
        <mxCell id="xzjI1KY8UYYocgD0sZGR-8" value="" style="shape=partialRectangle;collapsible=0;dropTarget=0;pointerEvents=0;fillColor=none;top=0;left=0;bottom=0;right=0;points=[[0,0.5],[1,0.5]];portConstraint=eastwest;" vertex="1" parent="xzjI1KY8UYYocgD0sZGR-1">
          <mxGeometry y="90" width="180" height="30" as="geometry" />
        </mxCell>
        <mxCell id="xzjI1KY8UYYocgD0sZGR-9" value="" style="shape=partialRectangle;connectable=0;fillColor=none;top=0;left=0;bottom=0;right=0;editable=1;overflow=hidden;" vertex="1" parent="xzjI1KY8UYYocgD0sZGR-8">
          <mxGeometry width="30" height="30" as="geometry" />
        </mxCell>
        <mxCell id="xzjI1KY8UYYocgD0sZGR-10" value="StaffLastName" style="shape=partialRectangle;connectable=0;fillColor=none;top=0;left=0;bottom=0;right=0;align=left;spacingLeft=6;overflow=hidden;" vertex="1" parent="xzjI1KY8UYYocgD0sZGR-8">
          <mxGeometry x="30" width="150" height="30" as="geometry" />
        </mxCell>
        <mxCell id="xzjI1KY8UYYocgD0sZGR-11" value="" style="shape=partialRectangle;collapsible=0;dropTarget=0;pointerEvents=0;fillColor=none;top=0;left=0;bottom=0;right=0;points=[[0,0.5],[1,0.5]];portConstraint=eastwest;" vertex="1" parent="xzjI1KY8UYYocgD0sZGR-1">
          <mxGeometry y="120" width="180" height="30" as="geometry" />
        </mxCell>
        <mxCell id="xzjI1KY8UYYocgD0sZGR-12" value="" style="shape=partialRectangle;connectable=0;fillColor=none;top=0;left=0;bottom=0;right=0;editable=1;overflow=hidden;" vertex="1" parent="xzjI1KY8UYYocgD0sZGR-11">
          <mxGeometry width="30" height="30" as="geometry" />
        </mxCell>
        <mxCell id="xzjI1KY8UYYocgD0sZGR-13" value="StaffRegion" style="shape=partialRectangle;connectable=0;fillColor=none;top=0;left=0;bottom=0;right=0;align=left;spacingLeft=6;overflow=hidden;" vertex="1" parent="xzjI1KY8UYYocgD0sZGR-11">
          <mxGeometry x="30" width="150" height="30" as="geometry" />
        </mxCell>
        <mxCell id="xzjI1KY8UYYocgD0sZGR-27" value="" style="shape=partialRectangle;collapsible=0;dropTarget=0;pointerEvents=0;fillColor=none;top=0;left=0;bottom=0;right=0;points=[[0,0.5],[1,0.5]];portConstraint=eastwest;" vertex="1" parent="1">
          <mxGeometry x="40" y="510" width="180" height="40" as="geometry" />
        </mxCell>
        <mxCell id="xzjI1KY8UYYocgD0sZGR-28" value="" style="shape=partialRectangle;connectable=0;fillColor=none;top=0;left=0;bottom=0;right=0;editable=1;overflow=hidden;" vertex="1" parent="xzjI1KY8UYYocgD0sZGR-27">
          <mxGeometry width="30" height="24" as="geometry" />
        </mxCell>
        <mxCell id="xzjI1KY8UYYocgD0sZGR-30" value="" style="shape=partialRectangle;collapsible=0;dropTarget=0;pointerEvents=0;fillColor=none;top=0;left=0;bottom=0;right=0;points=[[0,0.5],[1,0.5]];portConstraint=eastwest;" vertex="1" parent="1">
          <mxGeometry x="40" y="520" width="180" height="30" as="geometry" />
        </mxCell>
        <mxCell id="xzjI1KY8UYYocgD0sZGR-31" value="" style="shape=partialRectangle;connectable=0;fillColor=none;top=0;left=0;bottom=0;right=0;editable=1;overflow=hidden;" vertex="1" parent="xzjI1KY8UYYocgD0sZGR-30">
          <mxGeometry width="30" height="30" as="geometry" />
        </mxCell>
        <mxCell id="xzjI1KY8UYYocgD0sZGR-32" value="StudentRegion" style="shape=partialRectangle;connectable=0;fillColor=none;top=0;left=0;bottom=0;right=0;align=left;spacingLeft=6;overflow=hidden;" vertex="1" parent="xzjI1KY8UYYocgD0sZGR-30">
          <mxGeometry x="30" width="150" height="30" as="geometry" />
        </mxCell>
        <mxCell id="xzjI1KY8UYYocgD0sZGR-33" value="" style="shape=partialRectangle;collapsible=0;dropTarget=0;pointerEvents=0;fillColor=none;top=0;left=0;bottom=0;right=0;points=[[0,0.5],[1,0.5]];portConstraint=eastwest;" vertex="1" parent="1">
          <mxGeometry x="40" y="560" width="180" height="30" as="geometry" />
        </mxCell>
        <mxCell id="xzjI1KY8UYYocgD0sZGR-34" value="FK" style="shape=partialRectangle;connectable=0;fillColor=none;top=0;left=0;bottom=0;right=0;editable=1;overflow=hidden;" vertex="1" parent="xzjI1KY8UYYocgD0sZGR-33">
          <mxGeometry width="30" height="30" as="geometry" />
        </mxCell>
        <mxCell id="xzjI1KY8UYYocgD0sZGR-35" value="StaffNo" style="shape=partialRectangle;connectable=0;fillColor=none;top=0;left=0;bottom=0;right=0;align=left;spacingLeft=6;overflow=hidden;" vertex="1" parent="xzjI1KY8UYYocgD0sZGR-33">
          <mxGeometry x="30" width="150" height="30" as="geometry" />
        </mxCell>
        <mxCell id="xzjI1KY8UYYocgD0sZGR-37" value="" style="edgeStyle=entityRelationEdgeStyle;fontSize=12;html=1;endArrow=ERzeroToMany;startArrow=ERmandOne;exitX=1;exitY=0.5;exitDx=0;exitDy=0;" edge="1" parent="1" source="xzjI1KY8UYYocgD0sZGR-2">
          <mxGeometry width="100" height="100" relative="1" as="geometry">
            <mxPoint x="270" y="280" as="sourcePoint" />
            <mxPoint x="40" y="580" as="targetPoint" />
          </mxGeometry>
        </mxCell>
        <mxCell id="xzjI1KY8UYYocgD0sZGR-14" value="Student" style="shape=table;startSize=30;container=1;collapsible=1;childLayout=tableLayout;fixedRows=1;rowLines=0;fontStyle=1;align=center;resizeLast=1;" vertex="1" parent="1">
          <mxGeometry x="40" y="370" width="180" height="240" as="geometry" />
        </mxCell>
        <mxCell id="xzjI1KY8UYYocgD0sZGR-15" value="" style="shape=partialRectangle;collapsible=0;dropTarget=0;pointerEvents=0;fillColor=none;top=0;left=0;bottom=1;right=0;points=[[0,0.5],[1,0.5]];portConstraint=eastwest;" vertex="1" parent="xzjI1KY8UYYocgD0sZGR-14">
          <mxGeometry y="30" width="180" height="30" as="geometry" />
        </mxCell>
        <mxCell id="xzjI1KY8UYYocgD0sZGR-16" value="PK" style="shape=partialRectangle;connectable=0;fillColor=none;top=0;left=0;bottom=0;right=0;fontStyle=1;overflow=hidden;" vertex="1" parent="xzjI1KY8UYYocgD0sZGR-15">
          <mxGeometry width="30" height="30" as="geometry" />
        </mxCell>
        <mxCell id="xzjI1KY8UYYocgD0sZGR-17" value="StudentID" style="shape=partialRectangle;connectable=0;fillColor=none;top=0;left=0;bottom=0;right=0;align=left;spacingLeft=6;fontStyle=5;overflow=hidden;" vertex="1" parent="xzjI1KY8UYYocgD0sZGR-15">
          <mxGeometry x="30" width="150" height="30" as="geometry" />
        </mxCell>
        <mxCell id="xzjI1KY8UYYocgD0sZGR-18" value="" style="shape=partialRectangle;collapsible=0;dropTarget=0;pointerEvents=0;fillColor=none;top=0;left=0;bottom=0;right=0;points=[[0,0.5],[1,0.5]];portConstraint=eastwest;" vertex="1" parent="xzjI1KY8UYYocgD0sZGR-14">
          <mxGeometry y="60" width="180" height="30" as="geometry" />
        </mxCell>
        <mxCell id="xzjI1KY8UYYocgD0sZGR-19" value="" style="shape=partialRectangle;connectable=0;fillColor=none;top=0;left=0;bottom=0;right=0;editable=1;overflow=hidden;" vertex="1" parent="xzjI1KY8UYYocgD0sZGR-18">
          <mxGeometry width="30" height="30" as="geometry" />
        </mxCell>
        <mxCell id="xzjI1KY8UYYocgD0sZGR-20" value="StudentFirstName" style="shape=partialRectangle;connectable=0;fillColor=none;top=0;left=0;bottom=0;right=0;align=left;spacingLeft=6;overflow=hidden;" vertex="1" parent="xzjI1KY8UYYocgD0sZGR-18">
          <mxGeometry x="30" width="150" height="30" as="geometry" />
        </mxCell>
        <mxCell id="xzjI1KY8UYYocgD0sZGR-21" value="" style="shape=partialRectangle;collapsible=0;dropTarget=0;pointerEvents=0;fillColor=none;top=0;left=0;bottom=0;right=0;points=[[0,0.5],[1,0.5]];portConstraint=eastwest;" vertex="1" parent="xzjI1KY8UYYocgD0sZGR-14">
          <mxGeometry y="90" width="180" height="30" as="geometry" />
        </mxCell>
        <mxCell id="xzjI1KY8UYYocgD0sZGR-22" value="" style="shape=partialRectangle;connectable=0;fillColor=none;top=0;left=0;bottom=0;right=0;editable=1;overflow=hidden;" vertex="1" parent="xzjI1KY8UYYocgD0sZGR-21">
          <mxGeometry width="30" height="30" as="geometry" />
        </mxCell>
        <mxCell id="xzjI1KY8UYYocgD0sZGR-23" value="StudentLastName" style="shape=partialRectangle;connectable=0;fillColor=none;top=0;left=0;bottom=0;right=0;align=left;spacingLeft=6;overflow=hidden;" vertex="1" parent="xzjI1KY8UYYocgD0sZGR-21">
          <mxGeometry x="30" width="150" height="30" as="geometry" />
        </mxCell>
        <mxCell id="xzjI1KY8UYYocgD0sZGR-24" value="" style="shape=partialRectangle;collapsible=0;dropTarget=0;pointerEvents=0;fillColor=none;top=0;left=0;bottom=0;right=0;points=[[0,0.5],[1,0.5]];portConstraint=eastwest;" vertex="1" parent="xzjI1KY8UYYocgD0sZGR-14">
          <mxGeometry y="120" width="180" height="30" as="geometry" />
        </mxCell>
        <mxCell id="xzjI1KY8UYYocgD0sZGR-25" value="" style="shape=partialRectangle;connectable=0;fillColor=none;top=0;left=0;bottom=0;right=0;editable=1;overflow=hidden;" vertex="1" parent="xzjI1KY8UYYocgD0sZGR-24">
          <mxGeometry width="30" height="30" as="geometry" />
        </mxCell>
        <mxCell id="xzjI1KY8UYYocgD0sZGR-26" value="RegisteredDate" style="shape=partialRectangle;connectable=0;fillColor=none;top=0;left=0;bottom=0;right=0;align=left;spacingLeft=6;overflow=hidden;" vertex="1" parent="xzjI1KY8UYYocgD0sZGR-24">
          <mxGeometry x="30" width="150" height="30" as="geometry" />
        </mxCell>
        <mxCell id="xzjI1KY8UYYocgD0sZGR-60" value="Course" style="shape=table;startSize=30;container=1;collapsible=1;childLayout=tableLayout;fixedRows=1;rowLines=0;fontStyle=1;align=center;resizeLast=1;" vertex="1" parent="1">
          <mxGeometry x="400" y="80" width="180" height="190" as="geometry" />
        </mxCell>
        <mxCell id="xzjI1KY8UYYocgD0sZGR-61" value="" style="shape=partialRectangle;collapsible=0;dropTarget=0;pointerEvents=0;fillColor=none;top=0;left=0;bottom=1;right=0;points=[[0,0.5],[1,0.5]];portConstraint=eastwest;" vertex="1" parent="xzjI1KY8UYYocgD0sZGR-60">
          <mxGeometry y="30" width="180" height="30" as="geometry" />
        </mxCell>
        <mxCell id="xzjI1KY8UYYocgD0sZGR-62" value="PK" style="shape=partialRectangle;connectable=0;fillColor=none;top=0;left=0;bottom=0;right=0;fontStyle=1;overflow=hidden;" vertex="1" parent="xzjI1KY8UYYocgD0sZGR-61">
          <mxGeometry width="30" height="30" as="geometry" />
        </mxCell>
        <mxCell id="xzjI1KY8UYYocgD0sZGR-63" value="CourseCode" style="shape=partialRectangle;connectable=0;fillColor=none;top=0;left=0;bottom=0;right=0;align=left;spacingLeft=6;fontStyle=5;overflow=hidden;" vertex="1" parent="xzjI1KY8UYYocgD0sZGR-61">
          <mxGeometry x="30" width="150" height="30" as="geometry" />
        </mxCell>
        <mxCell id="xzjI1KY8UYYocgD0sZGR-64" value="" style="shape=partialRectangle;collapsible=0;dropTarget=0;pointerEvents=0;fillColor=none;top=0;left=0;bottom=0;right=0;points=[[0,0.5],[1,0.5]];portConstraint=eastwest;" vertex="1" parent="xzjI1KY8UYYocgD0sZGR-60">
          <mxGeometry y="60" width="180" height="30" as="geometry" />
        </mxCell>
        <mxCell id="xzjI1KY8UYYocgD0sZGR-65" value="" style="shape=partialRectangle;connectable=0;fillColor=none;top=0;left=0;bottom=0;right=0;editable=1;overflow=hidden;" vertex="1" parent="xzjI1KY8UYYocgD0sZGR-64">
          <mxGeometry width="30" height="30" as="geometry" />
        </mxCell>
        <mxCell id="xzjI1KY8UYYocgD0sZGR-66" value="Title" style="shape=partialRectangle;connectable=0;fillColor=none;top=0;left=0;bottom=0;right=0;align=left;spacingLeft=6;overflow=hidden;" vertex="1" parent="xzjI1KY8UYYocgD0sZGR-64">
          <mxGeometry x="30" width="150" height="30" as="geometry" />
        </mxCell>
        <mxCell id="xzjI1KY8UYYocgD0sZGR-67" value="" style="shape=partialRectangle;collapsible=0;dropTarget=0;pointerEvents=0;fillColor=none;top=0;left=0;bottom=0;right=0;points=[[0,0.5],[1,0.5]];portConstraint=eastwest;" vertex="1" parent="xzjI1KY8UYYocgD0sZGR-60">
          <mxGeometry y="90" width="180" height="30" as="geometry" />
        </mxCell>
        <mxCell id="xzjI1KY8UYYocgD0sZGR-68" value="" style="shape=partialRectangle;connectable=0;fillColor=none;top=0;left=0;bottom=0;right=0;editable=1;overflow=hidden;" vertex="1" parent="xzjI1KY8UYYocgD0sZGR-67">
          <mxGeometry width="30" height="30" as="geometry" />
        </mxCell>
        <mxCell id="xzjI1KY8UYYocgD0sZGR-69" value="Credit" style="shape=partialRectangle;connectable=0;fillColor=none;top=0;left=0;bottom=0;right=0;align=left;spacingLeft=6;overflow=hidden;" vertex="1" parent="xzjI1KY8UYYocgD0sZGR-67">
          <mxGeometry x="30" width="150" height="30" as="geometry" />
        </mxCell>
        <mxCell id="xzjI1KY8UYYocgD0sZGR-70" value="" style="shape=partialRectangle;collapsible=0;dropTarget=0;pointerEvents=0;fillColor=none;top=0;left=0;bottom=0;right=0;points=[[0,0.5],[1,0.5]];portConstraint=eastwest;" vertex="1" parent="xzjI1KY8UYYocgD0sZGR-60">
          <mxGeometry y="120" width="180" height="30" as="geometry" />
        </mxCell>
        <mxCell id="xzjI1KY8UYYocgD0sZGR-71" value="" style="shape=partialRectangle;connectable=0;fillColor=none;top=0;left=0;bottom=0;right=0;editable=1;overflow=hidden;" vertex="1" parent="xzjI1KY8UYYocgD0sZGR-70">
          <mxGeometry width="30" height="30" as="geometry" />
        </mxCell>
        <mxCell id="xzjI1KY8UYYocgD0sZGR-72" value="Quota" style="shape=partialRectangle;connectable=0;fillColor=none;top=0;left=0;bottom=0;right=0;align=left;spacingLeft=6;overflow=hidden;" vertex="1" parent="xzjI1KY8UYYocgD0sZGR-70">
          <mxGeometry x="30" width="150" height="30" as="geometry" />
        </mxCell>
        <mxCell id="xzjI1KY8UYYocgD0sZGR-86" value="" style="shape=partialRectangle;collapsible=0;dropTarget=0;pointerEvents=0;fillColor=none;top=0;left=0;bottom=0;right=0;points=[[0,0.5],[1,0.5]];portConstraint=eastwest;" vertex="1" parent="xzjI1KY8UYYocgD0sZGR-60">
          <mxGeometry y="150" width="180" height="30" as="geometry" />
        </mxCell>
        <mxCell id="xzjI1KY8UYYocgD0sZGR-87" value="" style="shape=partialRectangle;connectable=0;fillColor=none;top=0;left=0;bottom=0;right=0;editable=1;overflow=hidden;" vertex="1" parent="xzjI1KY8UYYocgD0sZGR-86">
          <mxGeometry width="30" height="30" as="geometry" />
        </mxCell>
        <mxCell id="xzjI1KY8UYYocgD0sZGR-88" value="StaffNo" style="shape=partialRectangle;connectable=0;fillColor=none;top=0;left=0;bottom=0;right=0;align=left;spacingLeft=6;overflow=hidden;" vertex="1" parent="xzjI1KY8UYYocgD0sZGR-86">
          <mxGeometry x="30" width="150" height="30" as="geometry" />
        </mxCell>
        <mxCell id="xzjI1KY8UYYocgD0sZGR-102" value="" style="edgeStyle=entityRelationEdgeStyle;fontSize=12;html=1;endArrow=ERzeroToMany;startArrow=ERmandOne;exitX=1;exitY=0.5;exitDx=0;exitDy=0;entryX=0;entryY=0.5;entryDx=0;entryDy=0;" edge="1" parent="1" source="xzjI1KY8UYYocgD0sZGR-15" target="xzjI1KY8UYYocgD0sZGR-90">
          <mxGeometry width="100" height="100" relative="1" as="geometry">
            <mxPoint x="240" y="420" as="sourcePoint" />
            <mxPoint x="340" y="320" as="targetPoint" />
          </mxGeometry>
        </mxCell>
        <mxCell id="xzjI1KY8UYYocgD0sZGR-103" value="" style="edgeStyle=entityRelationEdgeStyle;fontSize=12;html=1;endArrow=ERzeroToMany;startArrow=ERmandOne;exitX=1;exitY=0.5;exitDx=0;exitDy=0;entryX=0;entryY=0.333;entryDx=0;entryDy=0;entryPerimeter=0;" edge="1" parent="1" source="xzjI1KY8UYYocgD0sZGR-61" target="xzjI1KY8UYYocgD0sZGR-93">
          <mxGeometry width="100" height="100" relative="1" as="geometry">
            <mxPoint x="660" y="330" as="sourcePoint" />
            <mxPoint x="760" y="230" as="targetPoint" />
          </mxGeometry>
        </mxCell>
        <mxCell id="xzjI1KY8UYYocgD0sZGR-89" value="Enrollment" style="shape=table;startSize=30;container=1;collapsible=1;childLayout=tableLayout;fixedRows=1;rowLines=0;fontStyle=1;align=center;resizeLast=1;" vertex="1" parent="1">
          <mxGeometry x="350" y="400" width="180" height="160" as="geometry" />
        </mxCell>
        <mxCell id="xzjI1KY8UYYocgD0sZGR-90" value="" style="shape=partialRectangle;collapsible=0;dropTarget=0;pointerEvents=0;fillColor=none;top=0;left=0;bottom=0;right=0;points=[[0,0.5],[1,0.5]];portConstraint=eastwest;" vertex="1" parent="xzjI1KY8UYYocgD0sZGR-89">
          <mxGeometry y="30" width="180" height="30" as="geometry" />
        </mxCell>
        <mxCell id="xzjI1KY8UYYocgD0sZGR-91" value="PK,FK1" style="shape=partialRectangle;connectable=0;fillColor=none;top=0;left=0;bottom=0;right=0;fontStyle=1;overflow=hidden;" vertex="1" parent="xzjI1KY8UYYocgD0sZGR-90">
          <mxGeometry width="60" height="30" as="geometry" />
        </mxCell>
        <mxCell id="xzjI1KY8UYYocgD0sZGR-92" value="StudentID" style="shape=partialRectangle;connectable=0;fillColor=none;top=0;left=0;bottom=0;right=0;align=left;spacingLeft=6;fontStyle=5;overflow=hidden;" vertex="1" parent="xzjI1KY8UYYocgD0sZGR-90">
          <mxGeometry x="60" width="120" height="30" as="geometry" />
        </mxCell>
        <mxCell id="xzjI1KY8UYYocgD0sZGR-93" value="" style="shape=partialRectangle;collapsible=0;dropTarget=0;pointerEvents=0;fillColor=none;top=0;left=0;bottom=1;right=0;points=[[0,0.5],[1,0.5]];portConstraint=eastwest;" vertex="1" parent="xzjI1KY8UYYocgD0sZGR-89">
          <mxGeometry y="60" width="180" height="30" as="geometry" />
        </mxCell>
        <mxCell id="xzjI1KY8UYYocgD0sZGR-94" value="PK,FK2" style="shape=partialRectangle;connectable=0;fillColor=none;top=0;left=0;bottom=0;right=0;fontStyle=1;overflow=hidden;" vertex="1" parent="xzjI1KY8UYYocgD0sZGR-93">
          <mxGeometry width="60" height="30" as="geometry" />
        </mxCell>
        <mxCell id="xzjI1KY8UYYocgD0sZGR-95" value="CourseCode" style="shape=partialRectangle;connectable=0;fillColor=none;top=0;left=0;bottom=0;right=0;align=left;spacingLeft=6;fontStyle=5;overflow=hidden;" vertex="1" parent="xzjI1KY8UYYocgD0sZGR-93">
          <mxGeometry x="60" width="120" height="30" as="geometry" />
        </mxCell>
        <mxCell id="xzjI1KY8UYYocgD0sZGR-96" value="" style="shape=partialRectangle;collapsible=0;dropTarget=0;pointerEvents=0;fillColor=none;top=0;left=0;bottom=0;right=0;points=[[0,0.5],[1,0.5]];portConstraint=eastwest;" vertex="1" parent="xzjI1KY8UYYocgD0sZGR-89">
          <mxGeometry y="90" width="180" height="30" as="geometry" />
        </mxCell>
        <mxCell id="xzjI1KY8UYYocgD0sZGR-97" value="" style="shape=partialRectangle;connectable=0;fillColor=none;top=0;left=0;bottom=0;right=0;editable=1;overflow=hidden;" vertex="1" parent="xzjI1KY8UYYocgD0sZGR-96">
          <mxGeometry width="60" height="30" as="geometry" />
        </mxCell>
        <mxCell id="xzjI1KY8UYYocgD0sZGR-98" value="EnrollDate" style="shape=partialRectangle;connectable=0;fillColor=none;top=0;left=0;bottom=0;right=0;align=left;spacingLeft=6;overflow=hidden;" vertex="1" parent="xzjI1KY8UYYocgD0sZGR-96">
          <mxGeometry x="60" width="120" height="30" as="geometry" />
        </mxCell>
        <mxCell id="xzjI1KY8UYYocgD0sZGR-99" value="" style="shape=partialRectangle;collapsible=0;dropTarget=0;pointerEvents=0;fillColor=none;top=0;left=0;bottom=0;right=0;points=[[0,0.5],[1,0.5]];portConstraint=eastwest;" vertex="1" parent="xzjI1KY8UYYocgD0sZGR-89">
          <mxGeometry y="120" width="180" height="30" as="geometry" />
        </mxCell>
        <mxCell id="xzjI1KY8UYYocgD0sZGR-100" value="" style="shape=partialRectangle;connectable=0;fillColor=none;top=0;left=0;bottom=0;right=0;editable=1;overflow=hidden;" vertex="1" parent="xzjI1KY8UYYocgD0sZGR-99">
          <mxGeometry width="60" height="30" as="geometry" />
        </mxCell>
        <mxCell id="xzjI1KY8UYYocgD0sZGR-101" value="FinalGrade" style="shape=partialRectangle;connectable=0;fillColor=none;top=0;left=0;bottom=0;right=0;align=left;spacingLeft=6;overflow=hidden;" vertex="1" parent="xzjI1KY8UYYocgD0sZGR-99">
          <mxGeometry x="60" width="120" height="30" as="geometry" />
        </mxCell>
        <mxCell id="xzjI1KY8UYYocgD0sZGR-104" value="Assigment" style="shape=table;startSize=30;container=1;collapsible=1;childLayout=tableLayout;fixedRows=1;rowLines=0;fontStyle=1;align=center;resizeLast=1;" vertex="1" parent="1">
          <mxGeometry x="640" y="320" width="180" height="160" as="geometry" />
        </mxCell>
        <mxCell id="xzjI1KY8UYYocgD0sZGR-105" value="" style="shape=partialRectangle;collapsible=0;dropTarget=0;pointerEvents=0;fillColor=none;top=0;left=0;bottom=0;right=0;points=[[0,0.5],[1,0.5]];portConstraint=eastwest;" vertex="1" parent="xzjI1KY8UYYocgD0sZGR-104">
          <mxGeometry y="30" width="180" height="30" as="geometry" />
        </mxCell>
        <mxCell id="xzjI1KY8UYYocgD0sZGR-106" value="PK,FK1" style="shape=partialRectangle;connectable=0;fillColor=none;top=0;left=0;bottom=0;right=0;fontStyle=1;overflow=hidden;" vertex="1" parent="xzjI1KY8UYYocgD0sZGR-105">
          <mxGeometry width="60" height="30" as="geometry" />
        </mxCell>
        <mxCell id="xzjI1KY8UYYocgD0sZGR-107" value="StudentID,CourseCode" style="shape=partialRectangle;connectable=0;fillColor=none;top=0;left=0;bottom=0;right=0;align=left;spacingLeft=6;fontStyle=5;overflow=hidden;" vertex="1" parent="xzjI1KY8UYYocgD0sZGR-105">
          <mxGeometry x="60" width="120" height="30" as="geometry" />
        </mxCell>
        <mxCell id="xzjI1KY8UYYocgD0sZGR-108" value="" style="shape=partialRectangle;collapsible=0;dropTarget=0;pointerEvents=0;fillColor=none;top=0;left=0;bottom=1;right=0;points=[[0,0.5],[1,0.5]];portConstraint=eastwest;" vertex="1" parent="xzjI1KY8UYYocgD0sZGR-104">
          <mxGeometry y="60" width="180" height="30" as="geometry" />
        </mxCell>
        <mxCell id="xzjI1KY8UYYocgD0sZGR-109" value="PK" style="shape=partialRectangle;connectable=0;fillColor=none;top=0;left=0;bottom=0;right=0;fontStyle=1;overflow=hidden;" vertex="1" parent="xzjI1KY8UYYocgD0sZGR-108">
          <mxGeometry width="60" height="30" as="geometry" />
        </mxCell>
        <mxCell id="xzjI1KY8UYYocgD0sZGR-110" value="AssigmentNo" style="shape=partialRectangle;connectable=0;fillColor=none;top=0;left=0;bottom=0;right=0;align=left;spacingLeft=6;fontStyle=5;overflow=hidden;" vertex="1" parent="xzjI1KY8UYYocgD0sZGR-108">
          <mxGeometry x="60" width="120" height="30" as="geometry" />
        </mxCell>
        <mxCell id="xzjI1KY8UYYocgD0sZGR-111" value="" style="shape=partialRectangle;collapsible=0;dropTarget=0;pointerEvents=0;fillColor=none;top=0;left=0;bottom=0;right=0;points=[[0,0.5],[1,0.5]];portConstraint=eastwest;" vertex="1" parent="xzjI1KY8UYYocgD0sZGR-104">
          <mxGeometry y="90" width="180" height="30" as="geometry" />
        </mxCell>
        <mxCell id="xzjI1KY8UYYocgD0sZGR-112" value="" style="shape=partialRectangle;connectable=0;fillColor=none;top=0;left=0;bottom=0;right=0;editable=1;overflow=hidden;" vertex="1" parent="xzjI1KY8UYYocgD0sZGR-111">
          <mxGeometry width="60" height="30" as="geometry" />
        </mxCell>
        <mxCell id="xzjI1KY8UYYocgD0sZGR-113" value="Grade" style="shape=partialRectangle;connectable=0;fillColor=none;top=0;left=0;bottom=0;right=0;align=left;spacingLeft=6;overflow=hidden;" vertex="1" parent="xzjI1KY8UYYocgD0sZGR-111">
          <mxGeometry x="60" width="120" height="30" as="geometry" />
        </mxCell>
        <mxCell id="xzjI1KY8UYYocgD0sZGR-114" value="" style="shape=partialRectangle;collapsible=0;dropTarget=0;pointerEvents=0;fillColor=none;top=0;left=0;bottom=0;right=0;points=[[0,0.5],[1,0.5]];portConstraint=eastwest;" vertex="1" parent="xzjI1KY8UYYocgD0sZGR-104">
          <mxGeometry y="120" width="180" height="30" as="geometry" />
        </mxCell>
        <mxCell id="xzjI1KY8UYYocgD0sZGR-115" value="" style="shape=partialRectangle;connectable=0;fillColor=none;top=0;left=0;bottom=0;right=0;editable=1;overflow=hidden;" vertex="1" parent="xzjI1KY8UYYocgD0sZGR-114">
          <mxGeometry width="60" height="30" as="geometry" />
        </mxCell>
        <mxCell id="xzjI1KY8UYYocgD0sZGR-116" value="" style="shape=partialRectangle;connectable=0;fillColor=none;top=0;left=0;bottom=0;right=0;align=left;spacingLeft=6;overflow=hidden;" vertex="1" parent="xzjI1KY8UYYocgD0sZGR-114">
          <mxGeometry x="60" width="120" height="30" as="geometry" />
        </mxCell>
        <mxCell id="xzjI1KY8UYYocgD0sZGR-117" value="" style="edgeStyle=entityRelationEdgeStyle;fontSize=12;html=1;endArrow=ERzeroToMany;startArrow=ERmandOne;exitX=1;exitY=0.5;exitDx=0;exitDy=0;entryX=0;entryY=0.5;entryDx=0;entryDy=0;" edge="1" parent="1" source="xzjI1KY8UYYocgD0sZGR-90" target="xzjI1KY8UYYocgD0sZGR-105">
          <mxGeometry width="100" height="100" relative="1" as="geometry">
            <mxPoint x="560" y="370" as="sourcePoint" />
            <mxPoint x="660" y="270" as="targetPoint" />
          </mxGeometry>
        </mxCell>
        <mxCell id="xzjI1KY8UYYocgD0sZGR-120" value="" style="edgeStyle=entityRelationEdgeStyle;fontSize=12;html=1;endArrow=ERzeroToMany;startArrow=ERmandOne;entryX=0;entryY=0.5;entryDx=0;entryDy=0;exitX=1;exitY=0.5;exitDx=0;exitDy=0;" edge="1" parent="1" source="xzjI1KY8UYYocgD0sZGR-2" target="xzjI1KY8UYYocgD0sZGR-86">
          <mxGeometry width="100" height="100" relative="1" as="geometry">
            <mxPoint x="260" y="220" as="sourcePoint" />
            <mxPoint x="360" y="120" as="targetPoint" />
          </mxGeometry>
        </mxCell>
      </root>
    </mxGraphModel>
  </diagram>
</mxfile>
